<svg version="1.2" xmlns="http://www.w3.org/2000/svg" viewBox="0 0 19 337" width="19" height="337">
	<title>Being a Force for Change</title>
	<style>
		.s0 { fill: #d96561 } 
	</style>
	<path id="Being a Force for Change" class="s0" aria-label="Being a Force for Change"  d="m18.2 336.3h-17.2v-6.7q0-1.2 0.4-2.1 0.3-1 0.9-1.7 0.6-0.7 1.4-1.1 0.9-0.4 1.8-0.4 1.4 0 2.3 0.7 0.9 0.6 1.4 1.6h0.2q0.5-1.3 1.5-2.1 1-0.8 2.5-0.8 1.1 0 2 0.4 0.9 0.5 1.5 1.2 0.6 0.8 0.9 1.8 0.4 1 0.4 2.2zm-10.2-3.2v-3.3q0-1.1-0.6-1.7-0.6-0.6-1.5-0.6-0.8 0-1.4 0.6-0.6 0.6-0.6 1.6v3.4zm7.2 0v-3.6q0-1.3-0.6-1.9-0.6-0.6-1.6-0.6-0.9 0-1.6 0.6-0.6 0.7-0.6 2v3.5zm-11.1-22.8v7.7h3.9v-6.9h3.1v6.9h4v-7.7h3.1v10.9h-17.2v-10.9zm14.1-3h-17.2v-3.2h17.2zm0-6.7h-17.2v-3.8l11.5-6.9v-0.2l-3.3 0.2h-8.2v-3.2h17.2v3.4l-12.2 7.3v0.2l3.3-0.2h8.9zm-6.7-25.3h-2.7v-8.4q0.2-0.1 0.7-0.1 0.4 0 0.8 0 1.6 0 3.1 0.5 1.5 0.5 2.6 1.5 1.2 1.2 1.9 2.8 0.7 1.6 0.7 3.7 0 1.8-0.7 3.5-0.7 1.7-1.9 2.9-1.2 1.2-2.8 1.9-1.7 0.7-3.6 0.7-1.9 0-3.6-0.7-1.6-0.7-2.8-1.9-1.2-1.2-1.9-2.9-0.7-1.7-0.7-3.5 0-2.1 0.7-3.7 0.8-1.7 2-2.9l2.2 2.3q-0.9 0.8-1.3 1.8-0.5 1.1-0.5 2.5 0 1.2 0.4 2.2 0.4 1.1 1.2 1.9 0.8 0.8 1.9 1.2 1.1 0.5 2.4 0.5 1.3 0 2.4-0.5 1.1-0.4 1.9-1.2 0.8-0.8 1.2-1.9 0.4-1.1 0.4-2.3 0-1.3-0.4-2.3-0.4-0.9-1-1.6-0.4-0.5-1.1-0.8-0.7-0.4-1.5-0.6zm6.7-14.4l-17.2-6.4v-3.7l17.2-6.5v3.6l-4.1 1.4v6.7l4.1 1.4zm-7.1-6.1v-4.5l-4.3 1.5-2.1 0.7v0.2l2.1 0.6zm7.1-17.9h-17.2v-10.9h3.1v7.7h4.2v-6.9h3v6.9h6.9zm0.4-21.3q0 1.9-0.7 3.6-0.7 1.6-1.9 2.8-1.2 1.2-2.9 1.9-1.6 0.7-3.5 0.7-1.9 0-3.5-0.7-1.7-0.7-2.9-1.9-1.2-1.2-1.9-2.8-0.7-1.7-0.7-3.6 0-1.9 0.7-3.6 0.7-1.6 1.9-2.8 1.2-1.2 2.9-1.9 1.6-0.7 3.5-0.7 1.9 0 3.5 0.7 1.7 0.7 2.9 1.9 1.2 1.2 1.9 2.8 0.7 1.7 0.7 3.6zm-3.1 0q0-1.2-0.4-2.2-0.5-1.1-1.2-1.9-0.8-0.7-1.9-1.2-1.1-0.4-2.4-0.4-1.3 0-2.4 0.4-1.1 0.5-1.9 1.2-0.7 0.8-1.2 1.9-0.4 1-0.4 2.2 0 1.2 0.4 2.3 0.5 1 1.2 1.8 0.8 0.7 1.9 1.2 1.1 0.4 2.4 0.4 1.3 0 2.4-0.4 1.1-0.5 1.9-1.2 0.7-0.8 1.2-1.8 0.4-1.1 0.4-2.3zm2.7-11.6h-17.2v-6.3q0-1.3 0.4-2.3 0.4-1.1 1.1-1.8 0.8-0.8 1.8-1.2 1-0.4 2.1-0.4 0.9 0 1.7 0.3 0.7 0.3 1.3 0.8 0.6 0.5 1.1 1.2 0.5 0.6 0.7 1.4h0.2l6.6-4.6h0.2v3.7l-6.5 4.5v1.5h6.5zm-9.4-3.3v-3q0-1.1-0.7-1.8-0.7-0.7-1.7-0.7-0.5 0-0.9 0.2-0.4 0.1-0.8 0.4-0.3 0.3-0.5 0.8-0.2 0.5-0.2 1.1v3zm4.5-24.3l2.2-2.3q1.5 1.2 2.3 3 0.8 1.7 0.8 3.8 0 1.9-0.7 3.6-0.7 1.6-1.9 2.8-1.2 1.2-2.8 1.9-1.7 0.7-3.6 0.7-1.9 0-3.5-0.7-1.7-0.7-2.9-1.9-1.2-1.2-1.9-2.8-0.6-1.7-0.6-3.6 0-2 0.7-3.6 0.7-1.6 2.1-2.8l2.2 2.3q-0.9 0.7-1.4 1.8-0.6 0.9-0.6 2.3 0 1.2 0.5 2.3 0.4 1 1.1 1.8 0.8 0.8 1.9 1.2 1.1 0.5 2.4 0.5 1.4 0 2.5-0.5 1.1-0.4 1.8-1.2 0.8-0.8 1.2-1.8 0.4-1.1 0.4-2.3 0-1.4-0.5-2.5-0.6-1.2-1.7-2zm-9.2-15.8v7.6h4v-6.9h3.1v6.9h3.9v-7.6h3.1v10.9h-17.2v-10.9zm14.1-8.3h-17.1v-10.9h3v7.7h4.2v-6.9h3.1v6.9h6.8zm0.4-21.3q0 1.9-0.7 3.6-0.7 1.6-1.9 2.8-1.2 1.2-2.8 1.9-1.7 0.7-3.5 0.7-1.9 0-3.5-0.7-1.7-0.7-2.9-1.9-1.2-1.2-1.9-2.8-0.7-1.7-0.7-3.6 0-1.9 0.7-3.6 0.7-1.6 1.9-2.8 1.2-1.2 2.9-1.9 1.6-0.7 3.5-0.7 1.8 0 3.5 0.7 1.6 0.7 2.8 1.9 1.2 1.2 1.9 2.8 0.7 1.7 0.7 3.6zm-3 0q0-1.2-0.5-2.2-0.4-1.1-1.2-1.9-0.7-0.8-1.8-1.2-1.1-0.4-2.4-0.4-1.4 0-2.4 0.4-1.1 0.4-1.9 1.2-0.8 0.8-1.2 1.9-0.4 1-0.4 2.2 0 1.2 0.4 2.2 0.4 1.1 1.2 1.9 0.8 0.7 1.9 1.2 1 0.4 2.4 0.4 1.3 0 2.4-0.4 1.1-0.5 1.8-1.2 0.8-0.8 1.2-1.9 0.5-1 0.5-2.2zm2.6-11.6h-17.1v-6.3q0-1.3 0.4-2.3 0.4-1.1 1.1-1.8 0.7-0.8 1.7-1.2 1-0.4 2.2-0.4 0.9 0 1.6 0.3 0.8 0.3 1.4 0.8 0.6 0.5 1.1 1.2 0.4 0.6 0.7 1.4h0.2l6.6-4.6h0.1v3.7l-6.4 4.4v1.6h6.4zm-9.4-3.3v-3q0-1.1-0.7-1.8-0.6-0.7-1.7-0.7-0.4 0-0.8 0.2-0.5 0.1-0.8 0.4-0.4 0.3-0.5 0.8-0.3 0.5-0.3 1.1v3zm4.5-29.1l2.2-2.3q1.5 1.2 2.4 3 0.8 1.7 0.8 3.8 0 1.9-0.7 3.6-0.7 1.6-1.9 2.8-1.2 1.2-2.9 1.9-1.6 0.7-3.5 0.7-1.9 0-3.5-0.7-1.7-0.7-2.9-1.9-1.2-1.2-1.9-2.8-0.7-1.7-0.7-3.6 0-2 0.7-3.6 0.7-1.6 2.1-2.8l2.2 2.3q-0.9 0.7-1.4 1.7-0.5 1-0.5 2.4 0 1.2 0.4 2.3 0.4 1 1.2 1.8 0.8 0.8 1.9 1.2 1 0.5 2.4 0.5 1.3 0 2.4-0.5 1.1-0.4 1.9-1.2 0.7-0.8 1.2-1.8 0.4-1.1 0.4-2.3 0-1.4-0.6-2.5-0.6-1.2-1.7-2zm5-4.9h-17.2v-3.3h6.9v-7.2h-6.9v-3.2h17.2v3.2h-7.3v7.2h7.3zm0-15.7l-17.2-6.5v-3.6l17.2-6.5v3.6l-4.1 1.4v6.6l4.1 1.4zm-7.1-6v-4.5l-4.3 1.5-2.1 0.6v0.2l2.1 0.6zm7.1-12.5h-17.2v-3.8l11.5-6.9v-0.2l-3.3 0.2h-8.2v-3.2h17.2v3.4l-12.2 7.3v0.2l3.3-0.2h8.9zm-6.7-25.3h-2.8v-8.4q0.3-0.1 0.7-0.1 0.4-0.1 0.9-0.1 1.6 0 3.1 0.5 1.4 0.5 2.6 1.6 1.2 1.2 1.9 2.8 0.7 1.6 0.7 3.6 0 1.9-0.7 3.6-0.7 1.6-1.9 2.8-1.2 1.3-2.8 2-1.7 0.7-3.6 0.7-2 0-3.6-0.7-1.6-0.7-2.8-2-1.2-1.2-1.9-2.8-0.7-1.7-0.7-3.6 0-2.1 0.7-3.7 0.7-1.6 2-2.8l2.2 2.2q-0.9 0.9-1.3 1.9-0.5 1-0.5 2.5 0 1.1 0.4 2.2 0.4 1 1.2 1.8 0.8 0.8 1.9 1.3 1 0.5 2.4 0.5 1.3 0 2.4-0.5 1.1-0.5 1.9-1.3 0.7-0.8 1.2-1.8 0.4-1.1 0.4-2.3 0-1.4-0.4-2.3-0.4-1-1-1.6-0.5-0.5-1.1-0.8-0.7-0.4-1.5-0.6zm-7.4-22.2v7.7h3.9v-6.9h3.1v6.9h4v-7.7h3.1v10.9h-17.2v-10.9z"/>
</svg>