<svg version="1.2" xmlns="http://www.w3.org/2000/svg" viewBox="0 0 33 35" width="33" height="35">
	<title>Layer</title>
	<style>
		.s0 { fill: none;stroke: #158f94;stroke-linecap: round;stroke-linejoin: round;stroke-width: 3 } 
	</style>
	<path id="Layer" class="s0" d="m12.8 28.2c-7 2.1-7-3.5-9.8-4.2"/>
	<path id="Layer" class="s0" d="m12.8 32.4v-5.4q0-0.5 0-1 0.1-0.5 0.3-1 0.1-0.4 0.4-0.9 0.3-0.4 0.6-0.7c-4.4-0.6-9-2.2-9-9.8q0-0.8 0.1-1.5 0.2-0.7 0.4-1.4 0.3-0.7 0.7-1.3 0.4-0.6 0.9-1.1-0.2-0.7-0.3-1.3-0.2-0.7-0.1-1.4 0-0.7 0.1-1.3 0.2-0.7 0.4-1.3c0 0 1.7-0.5 5.5 2.1q1.2-0.4 2.4-0.5 1.3-0.2 2.5-0.2 1.2 0 2.5 0.2 1.2 0.1 2.4 0.5c3.8-2.6 5.3-2.5 5.5-2.1q0.2 0.6 0.4 1.3 0.1 0.6 0.1 1.3 0.1 0.7-0.1 1.4-0.1 0.6-0.3 1.3 0.5 0.5 0.9 1.1 0.4 0.6 0.7 1.3 0.2 0.7 0.4 1.4 0.1 0.7 0.1 1.4c0 7.7-4.6 9.3-9 9.8q0.3 0.4 0.6 0.8 0.3 0.4 0.4 0.9 0.2 0.5 0.3 1 0 0.5 0 1v5.4"/>
</svg>