<svg version="1.2" xmlns="http://www.w3.org/2000/svg" viewBox="0 0 33 32" width="33" height="32">
	<title>Folder 5</title>
	<style>
		.s0 { fill: none;stroke: #158f94;stroke-linecap: round;stroke-linejoin: round;stroke-width: 3 } 
	</style>
	<g id="Folder 5">
		<path id="Layer" class="s0" d="m22.6 11.4c1.1 0 2.2 0.2 3.2 0.6 1 0.5 2 1.1 2.7 1.9 0.8 0.7 1.4 1.7 1.9 2.7 0.4 1 0.6 2.1 0.6 3.2v9.8h-5.6v-9.8q0-0.6-0.2-1.1-0.2-0.5-0.6-0.9-0.4-0.4-0.9-0.6-0.5-0.2-1.1-0.2-0.6 0-1.1 0.2-0.5 0.2-0.9 0.6-0.4 0.4-0.6 0.9-0.2 0.5-0.2 1.1v9.8h-5.6v-9.8c0-1.1 0.2-2.2 0.6-3.2 0.5-1 1.1-2 1.9-2.7 0.7-0.8 1.7-1.4 2.7-1.9 1-0.4 2.1-0.6 3.2-0.6z"/>
		<path id="Layer" class="s0" d="m3 12.8h5.6v16.8h-5.6z"/>
		<circle id="Layer" class="s0" cx="5.8" cy="5.8" r="2.8"/>
	</g>
</svg>