<svg version="1.2" xmlns="http://www.w3.org/2000/svg" viewBox="0 0 36 30" width="36" height="30">
	<title>Layer</title>
	<style>
		.s0 { fill: none;stroke: #158f94;stroke-linecap: round;stroke-linejoin: round;stroke-width: 3 } 
	</style>
	<path id="Layer" class="s0" d="m32.9 3.8q-0.2 0.7-0.6 1.4-0.4 0.6-0.8 1.2-0.5 0.6-1 1.1 0 0.2 0 0.3 0.1 0.2 0.1 0.3 0 0.2 0 0.3 0 0.2 0 0.3c0 16.1-15.4 23.1-28 16.1q1.3 0.1 2.6-0.1 1.3-0.2 2.5-0.5 1.3-0.4 2.4-0.9 1.2-0.6 2.3-1.3c-12.6-5.6-7.7-19.2-7-18.2q1.1 1.5 2.5 2.7 1.4 1.2 3 2.1 1.7 0.8 3.5 1.2 1.8 0.4 3.6 0.3v-1.4c0-1.2 0.4-2.5 1.1-3.6 0.7-1 1.7-1.8 2.9-2.3 1.2-0.5 2.5-0.5 3.8-0.2 1.2 0.3 2.4 1 3.2 1.9q0.6-0.1 1.2-0.4 0.5-0.2 1.1-0.5 0.5-0.2 1.1-0.5 0.5-0.3 1-0.7-0.2 0.7-0.5 1.4z"/>
</svg>