<svg version="1.2" baseProfile="tiny-ps" xmlns="http://www.w3.org/2000/svg" viewBox="0 0 24 24" width="24" height="24"><title>heart-svg</title><style>tspan { white-space:pre }.shp0 { fill: #ff7061 } </style><path class="shp0" d="M20.84 4.61C20.33 4.1 19.72 3.69 19.06 3.42C18.39 3.14 17.67 3 16.95 3C16.23 3 15.51 3.14 14.84 3.42C14.18 3.69 13.57 4.1 13.06 4.61L12 5.67L10.94 4.61C9.91 3.58 8.51 3 7.05 3C5.59 3 4.19 3.58 3.16 4.61C2.13 5.64 1.55 7.04 1.55 8.5C1.55 9.96 2.13 11.36 3.16 12.39L4.22 13.45L12 21.23L19.78 13.45L20.84 12.39C21.35 11.88 21.76 11.27 22.03 10.61C22.31 9.94 22.45 9.22 22.45 8.5C22.45 7.78 22.31 7.06 22.03 6.39C21.76 5.73 21.35 5.12 20.84 4.61L20.84 4.61Z" /></svg>