<svg xmlns="http://www.w3.org/2000/svg" viewBox="0 0 49 31" width="49" height="31"><defs><clipPath clipPathUnits="userSpaceOnUse" id="cp1"><path d="M-712 -47L1208 -47L1208 1033L-712 1033Z" /></clipPath></defs><style>tspan { white-space:pre }.shp0 { fill: #bcc4cc } </style><g clip-path="url(#cp1)"><g ><g ><g ><g ><path fill-rule="evenodd" class="shp0" d="M43.56 25.9C39.47 29.99 33.18 30.52 30.17 30.52C29.31 30.52 27.45 30.54 26.17 30.54C24.75 30.54 22.82 30.46 20.65 30.15C14.77 29.31 9.93 27.14 6.67 23.87C3.41 20.61 1.23 15.78 0.39 9.89C-0.24 5.51 0.08 2.1 0.09 1.96C0.16 1.26 0.71 0.7 1.41 0.63C1.56 0.62 4.97 0.31 9.35 0.93C15.23 1.78 20.07 3.95 23.33 7.21C25.98 9.86 27.91 13.54 28.99 17.98C29.65 16.58 30.53 15.22 31.7 14.05C37.11 8.64 46.39 9.46 46.78 9.5C47.48 9.57 48.04 10.12 48.11 10.82C48.14 11.21 48.96 20.5 43.56 25.9ZM27.03 25.5C26.89 21.26 25.91 13.94 21.25 9.29C15.68 3.72 6.33 3.41 2.95 3.49C2.87 6.87 3.19 16.24 8.75 21.8C13.41 26.46 20.72 27.44 24.96 27.58L13.96 16.58C13.39 16.01 13.39 15.08 13.96 14.51C14.53 13.93 15.46 13.93 16.04 14.51L27.03 25.5ZM45.23 12.38C42.73 12.37 37.15 12.76 33.78 16.13C31.18 18.73 30.35 22.62 30.11 25.41L36.59 18.94C37.16 18.36 38.09 18.36 38.67 18.94C39.24 19.51 39.24 20.44 38.67 21.01L32.2 27.49C35 27.24 38.89 26.42 41.48 23.83C44.85 20.46 45.24 14.88 45.23 12.38Z" /></g></g></g></g></g></svg>