<svg version="1.2" baseProfile="tiny-ps" xmlns="http://www.w3.org/2000/svg" width="191" height="196"><path id="Path 0" d="M108 2.08c-5.23 1.05-13.1 3.1-17.5 4.55-4.4 1.46-12.28 4.8-17.5 7.42-5.23 2.62-12.88 7.14-17 10.04-4.13 2.9-11.58 9.36-16.57 14.34C34.45 43.42 27.99 50.87 25.09 55c-2.9 4.12-7.42 11.77-10.05 17-2.63 5.22-5.93 12.87-7.34 17-1.41 4.12-3.5 12.22-4.65 18-1.48 7.5-2.08 14.35-2.08 24s.6 16.5 2.08 24c1.15 5.77 3.24 13.87 4.65 18 1.41 4.12 4.3 10.99 6.43 15.25L18 196h173V14c-6.59-3.33-12.33-5.59-17-7.16-4.68-1.58-13.11-3.77-18.75-4.86-7.38-1.42-14.1-1.96-24-1.9-9.24.06-16.87.72-23.25 2z" fill="#4d4990"/></svg>